{
  "accessors": [
    {
      "bufferView": 1,
      "componentType": 5126,
      "count": 4223,
      "max": [
        18.543310165405273,
        2.3228349685668945,
        12.519689559936523
      ],
      "min": [
        0.03937007859349251,
        0.07874015718698502,
        0.0
      ],
      "type": "VEC3"
    },
    {
      "bufferView": 1,
      "byteOffset": 50676,
      "componentType": 5126,
      "count": 4223,
      "max": [
        1.0,
        1.0,
        1.0
      ],
      "min": [
        -1.0,
        -1.0,
        -1.0
      ],
      "type": "VEC3"
    },
    {
      "bufferView": 0,
      "componentType": 5125,
      "count": 11427,
      "type": "SCALAR"
    },
    {
      "bufferView": 1,
      "byteOffset": 101352,
      "componentType": 5126,
      "count": 7306,
      "max": [
        18.582679748535156,
        4.724409103393555,
        10.275589942932129
      ],
      "min": [
        0.0,
        0.0,
        0.0
      ],
      "type": "VEC3"
    },
    {
      "bufferView": 1,
      "byteOffset": 189024,
      "componentType": 5126,
      "count": 7306,
      "max": [
        1.0,
        1.0,
        1.0
      ],
      "min": [
        -1.0,
        -1.0,
        -1.0
      ],
      "type": "VEC3"
    },
    {
      "bufferView": 0,
      "byteOffset": 45708,
      "componentType": 5125,
      "count": 19296,
      "type": "SCALAR"
    },
    {
      "bufferView": 1,
      "byteOffset": 276696,
      "componentType": 5126,
      "count": 1119,
      "max": [
        16.181499481201172,
        0.4724408984184265,
        9.803150177001953
      ],
      "min": [
        4.8429131507873535,
        0.2517716884613037,
        3.1539371013641357
      ],
      "type": "VEC3"
    },
    {
      "bufferView": 1,
      "byteOffset": 290124,
      "componentType": 5126,
      "count": 1119,
      "max": [
        1.0,
        0.0,
        1.0
      ],
      "min": [
        -1.0,
        -1.0,
        -1.0
      ],
      "type": "VEC3"
    },
    {
      "bufferView": 0,
      "byteOffset": 122892,
      "componentType": 5125,
      "count": 3075,
      "type": "SCALAR"
    },
    {
      "bufferView": 1,
      "byteOffset": 303552,
      "componentType": 5126,
      "count": 1409,
      "max": [
        18.212600708007813,
        4.448819160461426,
        9.763779640197754
      ],
      "min": [
        0.3700787127017975,
        0.4685038924217224,
        0.39370080828666687
      ],
      "type": "VEC3"
    },
    {
      "bufferView": 1,
      "byteOffset": 320460,
      "componentType": 5126,
      "count": 1409,
      "max": [
        1.0,
        1.0,
        1.0
      ],
      "min": [
        -1.0,
        -1.0,
        -1.0
      ],
      "type": "VEC3"
    },
    {
      "bufferView": 0,
      "byteOffset": 135192,
      "componentType": 5125,
      "count": 3669,
      "type": "SCALAR"
    },
    {
      "bufferView": 1,
      "byteOffset": 337368,
      "componentType": 5126,
      "count": 1120,
      "max": [
        18.07086944580078,
        1.062991976737976,
        6.653542995452881
      ],
      "min": [
        0.5118110179901123,
        0.07874015718698502,
        0.5511810779571533
      ],
      "type": "VEC3"
    },
    {
      "bufferView": 1,
      "byteOffset": 350808,
      "componentType": 5126,
      "count": 1120,
      "max": [
        1.0,
        0.0,
        1.0
      ],
      "min": [
        -1.0,
        -1.0,
        -1.0
      ],
      "type": "VEC3"
    },
    {
      "bufferView": 0,
      "byteOffset": 149868,
      "componentType": 5125,
      "count": 4146,
      "type": "SCALAR"
    },
    {
      "bufferView": 1,
      "byteOffset": 364248,
      "componentType": 5126,
      "count": 145,
      "max": [
        16.181499481201172,
        0.38976380228996277,
        9.696394920349121
      ],
      "min": [
        4.331101894378662,
        0.27165350317955017,
        7.440945148468018
      ],
      "type": "VEC3"
    },
    {
      "bufferView": 1,
      "byteOffset": 365988,
      "componentType": 5126,
      "count": 145,
      "max": [
        0.0,
        -1.0,
        8.407790785948902e-45
      ],
      "min": [
        -2.86110792283928e-30,
        -1.0,
        0.0
      ],
      "type": "VEC3"
    },
    {
      "bufferView": 0,
      "byteOffset": 166452,
      "componentType": 5125,
      "count": 369,
      "type": "SCALAR"
    }
  ],
  "asset": {
    "extras": {
      "author": "Dani Satellite (https://sketchfab.com/dani-satellite)",
      "license": "CC-BY-4.0 (http://creativecommons.org/licenses/by/4.0/)",
      "source": "https://sketchfab.com/3d-models/bluetooth-music-boombox-1f4d347445c8431995355b482f1f1a46",
      "title": "Bluetooth music boombox"
    },
    "generator": "Sketchfab-12.68.0",
    "version": "2.0"
  },
  "bufferViews": [
    {
      "buffer": 0,
      "byteLength": 167928,
      "name": "floatBufferViews",
      "target": 34963
    },
    {
      "buffer": 0,
      "byteLength": 367728,
      "byteOffset": 167928,
      "byteStride": 12,
      "name": "floatBufferViews",
      "target": 34962
    }
  ],
  "buffers": [
    {
      "byteLength": 535656,
      "uri": "scene.bin"
    }
  ],
  "materials": [
    {
      "doubleSided": true,
      "name": "Color_M07",
      "pbrMetallicRoughness": {
        "baseColorFactor": [
          0.0276069393,
          0.0239284931,
          0.0223131063,
          1.0
        ],
        "metallicFactor": 0.0,
        "roughnessFactor": 0.5
      }
    },
    {
      "doubleSided": true,
      "name": "Color_M06",
      "pbrMetallicRoughness": {
        "baseColorFactor": [
          0.0517662898,
          0.0517662898,
          0.0517662898,
          1.0
        ],
        "metallicFactor": 0.0,
        "roughnessFactor": 0.5
      }
    },
    {
      "doubleSided": true,
      "name": "Color_C05",
      "pbrMetallicRoughness": {
        "baseColorFactor": [
          1.0,
          0.2438378681,
          0.0,
          1.0
        ],
        "metallicFactor": 0.0,
        "roughnessFactor": 0.5
      }
    },
    {
      "doubleSided": true,
      "name": "Color_M08",
      "pbrMetallicRoughness": {
        "baseColorFactor": [
          0.0,
          0.0,
          0.0,
          1.0
        ],
        "metallicFactor": 0.0,
        "roughnessFactor": 0.9
      }
    },
    {
      "doubleSided": true,
      "name": "Color_M01",
      "pbrMetallicRoughness": {
        "baseColorFactor": [
          0.886275,
          0.886275,
          0.886275,
          1.0
        ],
        "roughnessFactor": 0.09999999999999998
      }
    },
    {
      "doubleSided": true,
      "name": "Color_M00",
      "pbrMetallicRoughness": {
        "metallicFactor": 0.0,
        "roughnessFactor": 0.5
      }
    }
  ],
  "meshes": [
    {
      "name": "Material2",
      "primitives": [
        {
          "attributes": {
            "NORMAL": 1,
            "POSITION": 0
          },
          "indices": 2,
          "material": 0,
          "mode": 4
        }
      ]
    },
    {
      "name": "Material2",
      "primitives": [
        {
          "attributes": {
            "NORMAL": 4,
            "POSITION": 3
          },
          "indices": 5,
          "material": 1,
          "mode": 4
        }
      ]
    },
    {
      "name": "Material2",
      "primitives": [
        {
          "attributes": {
            "NORMAL": 7,
            "POSITION": 6
          },
          "indices": 8,
          "material": 2,
          "mode": 4
        }
      ]
    },
    {
      "name": "Material2",
      "primitives": [
        {
          "attributes": {
            "NORMAL": 10,
            "POSITION": 9
          },
          "indices": 11,
          "material": 3,
          "mode": 4
        }
      ]
    },
    {
      "name": "Material2",
      "primitives": [
        {
          "attributes": {
            "NORMAL": 13,
            "POSITION": 12
          },
          "indices": 14,
          "material": 4,
          "mode": 4
        }
      ]
    },
    {
      "name": "Material2",
      "primitives": [
        {
          "attributes": {
            "NORMAL": 16,
            "POSITION": 15
          },
          "indices": 17,
          "material": 5,
          "mode": 4
        }
      ]
    }
  ],
  "nodes": [
    {
      "children": [
        1
      ],
      "matrix": [
        1.0,
        0.0,
        0.0,
        0.0,
        0.0,
        2.220446049250313e-16,
        -1.0,
        0.0,
        0.0,
        1.0,
        2.220446049250313e-16,
        0.0,
        0.0,
        0.0,
        0.0,
        1.0
      ],
      "name": "Sketchfab_model"
    },
    {
      "children": [
        2,
        3,
        4,
        5,
        6,
        7,
        8
      ],
      "name": "Collada visual scene group"
    },
    {
      "mesh": 0,
      "name": "Material2"
    },
    {
      "mesh": 1,
      "name": "Material2"
    },
    {
      "mesh": 2,
      "name": "Material2"
    },
    {
      "mesh": 3,
      "name": "Material2"
    },
    {
      "mesh": 4,
      "name": "Material2"
    },
    {
      "mesh": 5,
      "name": "Material2"
    },
    {
      "children": [
        9
      ],
      "name": "SketchUp"
    },
    {
      "children": [
        10
      ],
      "matrix": [
        0.9126726,
        -0.4086914,
        1.387779e-17,
        0.0,
        0.07245342,
        0.1618,
        0.9841602,
        0.0,
        -0.4022178,
        -0.8982161,
        0.1772815,
        0.0,
        -3.59446,
        -24.59788,
        11.50539,
        1.0
      ],
      "name": "skp_camera_Last_Saved_SketchUp_View"
    },
    {
      "name": "ID1"
    }
  ],
  "scene": 0,
  "scenes": [
    {
      "name": "Sketchfab_Scene",
      "nodes": [
        0
      ]
    }
  ]
}
